<svg width="229" height="53" viewBox="0 0 229 53" fill="none" xmlns="http://www.w3.org/2000/svg">
<path d="M48 44V4.42721H74.3899V8.80537H56.8047V22.0124H69.9876V26.4148H56.8047V39.5976H74.3899V44H48ZM83.158 44V39.5976H78.7556V35.1953H87.5603V39.5976H91.9385V35.1953H87.5603V30.8171H83.158V26.4148H78.7556V22.0124H83.158V17.6101H96.3408V22.0124H100.743V26.4148H91.9385V22.0124H87.5603V26.4148H91.9385V30.8171H96.3408V35.1953H100.743V39.5976H96.3408V44H83.158ZM122.703 39.5976V22.0124H113.922V39.5976H122.703ZM105.118 52.8047V17.6101H127.105V22.0124H131.507V39.5976H127.105V44H113.922V52.8047H105.118ZM153.458 39.5976V30.8171H144.678V39.5976H153.458ZM140.276 44V39.5976H135.873V30.8171H140.276V26.4148H153.458V22.0124H140.276V17.6101H157.861V22.0124H162.263V44H140.276ZM184.214 39.5976V22.0124H175.434V39.5976H184.214ZM171.031 44V39.5976H166.629V22.0124H171.031V17.6101H184.214V4.42721H193.019V44H171.031ZM214.97 39.5976V30.8171H206.189V39.5976H214.97ZM201.787 44V39.5976H197.384V30.8171H201.787V26.4148H214.97V22.0124H201.787V17.6101H219.372V22.0124H223.774V44H201.787Z" fill="#17C055"/>
<rect x="34" y="4.06299" width="6" height="8.12633" fill="#17C055"/>
<rect x="16" y="4.06299" width="6" height="8.12633" fill="#17C055"/>
<rect x="30" y="12.1895" width="6" height="8.12633" fill="#17C055"/>
<rect x="12" y="12.1895" width="6" height="8.12633" fill="#17C055"/>
<rect x="26" y="20.3159" width="6" height="8.12633" fill="#17C055"/>
<rect x="8" y="20.3159" width="6" height="8.12633" fill="#17C055"/>
<rect x="22" y="28.4424" width="6" height="8.12633" fill="#17C055"/>
<rect x="4" y="28.4424" width="6" height="8.12633" fill="#17C055"/>
<rect x="18" y="36.5684" width="6" height="8.12633" fill="#17C055"/>
<rect y="36.5684" width="6" height="8.12633" fill="#17C055"/>
</svg>
