<svg viewBox="0 0 114 27" fill="fill" xmlns="http://www.w3.org/2000/svg">
<path d="M24 22V2.368H37.092V4.54H28.368V11.092H34.908V13.276H28.368V19.816H37.092V22H24ZM41.4418 22V19.816H39.2578V17.632H43.6258V19.816H45.7978V17.632H43.6258V15.46H41.4418V13.276H39.2578V11.092H41.4418V8.908H47.9818V11.092H50.1658V13.276H45.7978V11.092H43.6258V13.276H45.7978V15.46H47.9818V17.632H50.1658V19.816H47.9818V22H41.4418ZM61.0599 19.816V11.092H56.7039V19.816H61.0599ZM52.3359 26.368V8.908H63.2439V11.092H65.4279V19.816H63.2439V22H56.7039V26.368H52.3359ZM76.3178 19.816V15.46H71.9618V19.816H76.3178ZM69.7778 22V19.816H67.5938V15.46H69.7778V13.276H76.3178V11.092H69.7778V8.908H78.5018V11.092H80.6858V22H69.7778ZM91.5756 19.816V11.092H87.2196V19.816H91.5756ZM85.0356 22V19.816H82.8516V11.092H85.0356V8.908H91.5756V2.368H95.9436V22H85.0356ZM106.833 19.816V15.46H102.477V19.816H106.833ZM100.293 22V19.816H98.1094V15.46H100.293V13.276H106.833V11.092H100.293V8.908H109.017V11.092H111.201V22H100.293Z" fill="#17C055"/>
<rect x="17" y="2" width="3" height="4" fill="#17C055"/>
<rect x="8" y="2" width="3" height="4" fill="#17C055"/>
<rect x="15" y="6" width="3" height="4" fill="#17C055"/>
<rect x="6" y="6" width="3" height="4" fill="#17C055"/>
<rect x="13" y="10" width="3" height="4" fill="#17C055"/>
<rect x="4" y="10" width="3" height="4" fill="#17C055"/>
<rect x="11" y="14" width="3" height="4" fill="#17C055"/>
<rect x="2" y="14" width="3" height="4" fill="#17C055"/>
<rect x="9" y="18" width="3" height="4" fill="#17C055"/>
<rect y="18" width="3" height="4" fill="#17C055"/>
</svg>
