<svg width="16" height="17" viewBox="0 0 16 17" fill="none" xmlns="http://www.w3.org/2000/svg">
<path d="M12.6266 12.0128L16 15.3855L14.8855 16.5L11.5128 13.1266C10.2579 14.1325 8.69706 14.6797 7.08871 14.6774C3.17574 14.6774 0 11.5017 0 7.58871C0 3.67574 3.17574 0.5 7.08871 0.5C11.0017 0.5 14.1774 3.67574 14.1774 7.58871C14.1797 9.19706 13.6325 10.7579 12.6266 12.0128ZM11.0466 11.4284C12.0462 10.4005 12.6044 9.02254 12.6021 7.58871C12.6021 4.54293 10.1345 2.07527 7.08871 2.07527C4.04293 2.07527 1.57527 4.54293 1.57527 7.58871C1.57527 10.6345 4.04293 13.1021 7.08871 13.1021C8.52254 13.1044 9.90047 12.5462 10.9284 11.5466L11.0466 11.4284Z" fill="#707891"/>
</svg>
